<svg xmlns="http://www.w3.org/2000/svg" width="1200" height="900" viewBox="0 0 1200 900">
  <defs>
    <radialGradient id="bg" cx="40%" cy="35%" r="90%">
      <stop offset="0" stop-color="#0a3a5f"/>
      <stop offset="1" stop-color="#04101f"/>
    </radialGradient>
    <filter id="glow" x="-20%" y="-20%" width="140%" height="140%">
      <feGaussianBlur stdDeviation="10" result="b"/>
      <feMerge>
        <feMergeNode in="b"/>
        <feMergeNode in="SourceGraphic"/>
      </feMerge>
    </filter>
    <linearGradient id="line" x1="0" y1="0" x2="1" y2="1">
      <stop offset="0" stop-color="#ffffff" stop-opacity="0.8"/>
      <stop offset="0.4" stop-color="#69d2ff" stop-opacity="0.9"/>
      <stop offset="1" stop-color="#00fff0" stop-opacity="0.7"/>
    </linearGradient>
  </defs>

  <rect width="1200" height="900" fill="url(#bg)"/>

  <g filter="url(#glow)" fill="none" stroke="url(#line)" stroke-width="4" stroke-linecap="round" stroke-linejoin="round" opacity="0.9">
    <path d="M-40,240 C120,140 220,320 360,230 C520,120 640,310 780,220 C930,130 1040,290 1260,180" />
    <path d="M-40,420 C140,360 260,520 420,440 C580,360 700,540 860,430 C1020,320 1110,470 1280,390" />
    <path d="M-60,620 C120,560 260,720 420,650 C600,570 740,760 900,640 C1040,530 1120,700 1300,600" />
    <path d="M120,40 C180,200 60,310 220,420 C380,530 270,670 430,760 C590,850 720,720 860,820" opacity="0.65"/>
    <path d="M1040,40 C980,210 1120,320 980,450 C840,580 980,720 840,860" opacity="0.55"/>
  </g>

  <g filter="url(#glow)" fill="none" stroke="#ffffff" stroke-opacity="0.25" stroke-width="2">
    <path d="M0,120 C140,40 260,180 380,110 C520,30 640,180 780,100 C930,20 1040,150 1200,80" />
    <path d="M0,780 C180,720 300,860 460,790 C620,720 760,860 920,780 C1040,730 1120,820 1200,800" />
  </g>
</svg>

